<?xml version="1.0" encoding="UTF-8" standalone="no"?>
<svg
   width="145.61501"
   height="40"
   fill="none"
   viewBox="0 0 145.61501 40"
   version="1.1"
   id="svg2"
   sodipodi:docname="logodark.svg"
   inkscape:version="1.4 (1:1.4+202410161351+e7c3feb100)"
   xmlns:inkscape="http://www.inkscape.org/namespaces/inkscape"
   xmlns:sodipodi="http://sodipodi.sourceforge.net/DTD/sodipodi-0.dtd"
   xmlns="http://www.w3.org/2000/svg"
   xmlns:svg="http://www.w3.org/2000/svg">
  <defs
     id="defs2" />
  <sodipodi:namedview
     id="namedview2"
     pagecolor="#ffffff"
     bordercolor="#000000"
     borderopacity="0.25"
     inkscape:showpageshadow="2"
     inkscape:pageopacity="0.0"
     inkscape:pagecheckerboard="0"
     inkscape:deskcolor="#d1d1d1"
     inkscape:zoom="2.2097087"
     inkscape:cx="115.85237"
     inkscape:cy="107.25396"
     inkscape:window-width="1247"
     inkscape:window-height="758"
     inkscape:window-x="50"
     inkscape:window-y="32"
     inkscape:window-maximized="0"
     inkscape:current-layer="svg2" />
  <g
     id="g32"
     transform="matrix(0.36254461,0,0,0.36254461,45.663219,40)">
    <path
       id="path22"
       style="fill:#e4a48b;fill-opacity:1"
       d="m 179.51979,-50.904903 c -4.26144,0.03669 -6.71008,1.061458 -9.33276,3.906738 l -1.11828,1.213363 v -2.375049 -2.375566 H 163.90937 158.75 V -25.267708 0 h 5.15937 5.15938 v -10.491349 -10.49135 l 1.572,1.49965 c 4.60934,4.39657 11.8744,4.743911 17.35863,0.830441 2.87222,-2.04957 5.1394,-5.60145 6.1252,-9.59683 0.68985,-2.79593 0.61661,-8.344821 -0.14521,-11.029301 -1.5834,-5.57953 -4.94282,-9.3727 -9.77873,-11.04067 -1.45744,-0.50271 -2.28461,-0.606094 -4.68085,-0.585494 z m -2.96106,9.058362 c 3.2312,-0.0076 5.9556,1.909617 6.97425,4.908227 0.53236,1.56708 0.60011,4.776074 0.13488,6.403744 -0.63742,2.23012 -2.65093,4.375316 -4.78265,5.095296 -2.49816,0.84373 -5.83543,0.03529 -7.62021,-1.846399 -1.54245,-1.6262 -2.06389,-3.191369 -2.06189,-6.184119 0.002,-3.18763 0.60551,-4.819368 2.39107,-6.465238 1.54708,-1.42605 2.79487,-1.906511 4.96455,-1.911511 z" />
    <path
       style="fill:#c2b280;fill-opacity:1"
       d="m 2.09214,-54.85505 c -3.42532,-1.80789 -4.13166,-6.09263 -1.44636,-8.77386 2.2749,-2.27145 6.65888,-2.36314 8.97873,-0.18778 2.91125,2.72991 1.98254,7.60926 -1.74465,9.1662 -1.53922,0.64296 -4.37163,0.54286 -5.78772,-0.20456 z"
       id="path23" />
    <path
       style="fill:#e4a48b;fill-opacity:1"
       d="m 241.82917,-39.02604 v -22.62188 h 5.15937 5.15938 v 7.81986 7.81986 l 1.3077,-1.28723 c 2.48747,-2.44855 5.33199,-3.50457 9.43994,-3.50457 6.50215,0 11.03034,3.72722 12.40363,10.20963 0.30476,1.43857 0.38844,4.21474 0.39205,13.00756 l 0.005,11.17864 h -5.15938 -5.15937 v -10.00614 c 0,-11.02116 -0.0884,-11.78135 -1.57958,-13.58416 -1.21069,-1.4637 -2.70135,-2.07428 -5.0641,-2.07428 -1.76143,0 -2.13636,0.0944 -3.41465,0.8599 -1.15841,0.69369 -1.59082,1.16296 -2.23725,2.42794 l -0.8013,1.56805 -0.0828,10.40435 -0.0828,10.40434 h -5.14273 -5.14273 z"
       id="path24" />
    <path
       style="fill:#9b9b9b;fill-opacity:1"
       d="m 93.927086,-33.46979 v -17.06563 h 5.159375 5.159379 v 2.10971 2.1097 l 1.2022,-1.2022 c 0.7083,-0.70831 2.03985,-1.60126 3.24114,-2.17356 1.90211,-0.90616 2.23668,-0.9778 4.98518,-1.06739 3.32576,-0.1084 5.01088,0.24878 7.56387,1.60321 1.42805,0.75763 3.7211,2.87876 4.36991,4.04229 0.16161,0.28983 0.33669,0.46842 0.38905,0.39687 1.94311,-2.6549 4.49346,-4.59249 7.27832,-5.52958 2.01511,-0.67807 6.06872,-0.75517 8.35772,-0.15896 4.5082,1.17424 7.65809,4.34355 9.10882,9.16498 0.3579,1.18947 0.44425,3.32513 0.53082,13.12837 l 0.10339,11.70781 h -5.15985 -5.15985 l -0.1008,-10.2526 c -0.11275,-11.46823 -0.1394,-11.6553 -1.91381,-13.43294 -1.23897,-1.24122 -2.58356,-1.71446 -4.87125,-1.71446 -2.6523,0 -4.45644,1.05168 -5.67357,3.3073 -0.55359,1.0259 -0.57346,1.38055 -0.64863,11.57552 l -0.0775,10.51718 h -5.14798 -5.14798 l -0.006,-9.72343 c -0.004,-5.66177 -0.11971,-10.22079 -0.27757,-10.91407 -0.3601,-1.58143 -1.33386,-3.01251 -2.63629,-3.87442 -0.83194,-0.55055 -1.48007,-0.7304 -2.97431,-0.82533 -2.60434,-0.16547 -4.02469,0.26196 -5.38246,1.61973 -1.86935,1.86935 -1.95206,2.45592 -1.95206,13.84367 v 9.87385 h -5.159379 -5.159375 z"
       id="path25" />
    <path
       style="fill:#c2b280;fill-opacity:1"
       d="m 0,-33.46979 v -17.06563 h 5.15938 5.15937 v 17.06563 17.06562 H 5.15938 0 Z"
       id="path26" />
    <path
       style="fill:#c2b280;fill-opacity:1"
       d="m -17.99166,-39.02604 v -22.62188 h 5.15937 5.15938 v 22.62188 22.62187 h -5.15938 -5.15937 z"
       id="path27" />
    <path
       id="path28"
       style="fill:#e4a48b;fill-opacity:1"
       d="m 213.5048,-51.006706 c -0.80378,-0.01724 -1.62017,0.03089 -2.43758,0.148312 -5.61243,0.80622 -10.04414,4.777209 -12.02459,10.774019 -0.63389,1.91946 -0.70053,2.51109 -0.71623,6.35 -0.0196,4.76815 0.27809,6.287623 1.87275,9.558073 2.07898,4.26373 6.43598,7.536477 10.80606,8.116817 4.30008,0.57105 8.46503,-0.705828 11.18846,-3.429248 0.77748,-0.77748 1.46529,-1.41335 1.52859,-1.41335 0.0632,0 0.11524,1.012038 0.11524,2.248958 v 2.248958 h 5.15937 5.15938 v -17.065625 -17.065625 h -5.15938 -5.15937 v 2.248959 c 0,1.23693 -0.0545,2.248958 -0.12144,2.248958 -0.0669,0 -0.68141,-0.597988 -1.36529,-1.329118 -2.11257,-2.258506 -5.36295,-3.565382 -8.84597,-3.640088 z m 2.65978,9.156031 c 5.06091,0 8.0408,4.048774 7.36596,10.008174 -0.31201,2.75524 -1.96736,5.145012 -4.29638,6.202722 -2.61164,1.18605 -6.46535,0.374432 -8.33541,-1.755448 -1.56637,-1.784 -1.99497,-3.083705 -2.00297,-6.074565 -0.009,-3.20016 0.59122,-4.810534 2.42,-6.496244 1.55236,-1.43091 2.71972,-1.884639 4.8488,-1.884639 z" />
    <path
       id="path29"
       style="fill:#228b22;fill-opacity:1"
       d="m 65.215658,-51.020658 c -1.213278,0.0079 -2.456639,0.166971 -3.701067,0.485241 -4.85833,1.24256 -8.426727,4.724451 -10.273274,10.023161 -0.699289,2.00663 -0.809246,2.728895 -0.91519,6.023405 -0.14547,4.52363 0.273545,6.83412 1.829346,10.08724 2.027285,4.23899 6.198881,7.577189 10.286194,8.231539 4.695191,0.75167 8.914501,-0.442523 11.829769,-3.348633 l 1.399397,-1.394747 v 2.254643 2.254642 H 80.9625 86.254167 V -33.469792 -50.535417 H 80.9625 75.670833 v 2.274797 2.27428 l -1.124479,-1.213363 c -2.32108,-2.504655 -5.690863,-3.844566 -9.330696,-3.820955 z m 3.108854,9.154996 c 1.098968,0.01 2.187677,0.206683 2.975529,0.588078 1.641769,0.79477 3.476574,2.908368 3.971334,4.574398 0.527764,1.77719 0.508246,4.820333 -0.04186,6.523633 -0.569624,1.76374 -2.223867,3.631315 -3.913973,4.418335 -0.972176,0.4527 -1.798773,0.619533 -3.053044,0.617533 -2.912673,-0.0055 -5.132968,-1.388153 -6.572209,-4.092773 -0.639409,-1.20157 -0.703833,-1.589874 -0.703833,-4.233334 0,-2.40876 0.09689,-3.119832 0.561723,-4.124812 0.717456,-1.55116 2.242234,-3.07524 3.73879,-3.73724 0.829099,-0.366725 1.938572,-0.543775 3.037541,-0.533818 z" />
    <path
       style="fill:#228b22;fill-opacity:1"
       d="m 27.99472,-16.27247 c -5.02025,-0.95318 -8.74808,-3.49776 -10.65862,-7.27545 -0.33118,-0.65484 -0.68524,-1.60734 -0.78679,-2.11666 -0.10156,-0.50933 -0.24412,-1.13695 -0.31681,-1.39472 -0.12377,-0.4389 0.20099,-0.46412 5.10955,-0.39688 5.00272,0.0685 5.24629,0.0959 5.34218,0.60097 0.41658,2.19401 3.86054,3.79471 6.585646,3.06092 2.374835,-0.63948 3.320263,-2.43147 2.067987,-3.91971 -0.776429,-0.92273 -1.966596,-1.37228 -7.530093,-2.84421 -5.91192,-1.56413 -8.35297,-3.10532 -9.74934,-6.15538 -0.92046,-2.01056 -0.94597,-5.04019 -0.0618,-7.33758 1.10358,-2.86742 4.21667,-5.35657 7.96716,-6.37034 3.39335,-0.91725 8.251258,-0.73918 11.564925,0.4239 4.039114,1.41772 7.192541,5.22981 7.879402,9.5252 l 0.169772,1.0617 -4.863438,-0.0723 c -4.840288,-0.0719 -4.863846,-0.0751 -4.949232,-0.67708 -0.04719,-0.33265 -0.523437,-1.06198 -1.058333,-1.62073 -2.039844,-2.13081 -6.540246,-1.96683 -7.467636,0.2721 -0.32784,0.79148 -0.1484,1.69851 0.47696,2.41094 0.49643,0.56554 2.51555,1.33408 5.406669,2.05795 2.919101,0.73087 6.188656,1.80091 7.471221,2.44513 1.609227,0.8083 3.73133,2.9712 4.368619,4.45262 0.311816,0.72484 0.637561,2.07417 0.723877,2.99851 0.459692,4.92273 -3.001785,9.10788 -8.777249,10.61225 -2.307675,0.6011 -6.474707,0.72207 -8.914657,0.2588 z"
       id="path30" />
    <path
       id="path31"
       style="fill:#cc5733;fill-opacity:1"
       d="m -40.481767,-50.926607 c -3.87303,-0.0064 -5.369546,0.307712 -8.466666,1.777152 -4.12851,1.95879 -7.199152,5.86755 -8.368482,10.65258 -0.60617,2.48222 -0.610758,7.579085 -0.0083,9.921875 0.58795,2.28623 2.281506,5.658433 3.614766,7.197493 2.205605,2.546051 6.228582,4.636725 10.098609,5.248776 h 5.16e-4 c 0.775984,0.122603 2.565506,0.170109 3.977535,0.10542 6.94039,-0.31777 12.524915,-4.159469 14.681275,-10.100159 l 0.601514,-1.65778 h -5.445146 -5.445146 l -1.189074,1.3224 c -0.94179,1.04749 -1.495093,1.411541 -2.660303,1.750281 -2.45551,0.71383 -4.824611,0.105761 -6.563941,-1.685169 -0.885,-0.91126 -1.706355,-2.811369 -1.706355,-3.948079 v -0.614433 h 11.754838 11.755354 l 0.187586,-1.503267 c 0.23868,-1.9103 -0.235784,-5.806319 -0.972034,-7.984009 -1.16406,-3.44303 -3.851288,-6.633803 -7.115328,-8.448063 -2.66417,-1.48084 -5.01648,-2.029018 -8.73125,-2.035018 z m -0.426847,8.331274 c 0.85624,-0.0014 2.010301,0.133097 2.564701,0.299207 2.04152,0.61165 3.94808,2.888827 3.94808,4.714957 v 0.804086 h -6.482292 c -7.19613,0 -6.861868,0.09784 -6.077148,-1.780253 1.08151,-2.58842 3.245339,-4.032997 6.046659,-4.037997 z" />
    <path
       id="path32"
       style="fill:#cc5733;fill-opacity:1"
       d="m -125.952,-110.33125 0.0749,38.430729 0.0755,38.430729 0.7338,2.50424 c 3.31484,11.31121 12.12899,19.60651 23.33553,21.9614504 2.718638,0.57129 8.45125,0.7040193 11.24479,0.2604493 10.98188,-1.7437497 20.618911,-10.0099177 24.187671,-20.7465377 1.95974,-5.89588 1.912766,-13.186814 -0.124024,-19.232934 -1.81734,-5.39468 -5.380879,-10.473376 -9.911539,-14.125236 -2.56058,-2.06391 -7.555012,-4.631313 -10.770402,-5.536613 -7.77277,-2.18843 -16.166916,-1.221366 -23.159306,2.668054 l -1.65365,0.919841 v -22.767086 -22.767086 h -7.01663 z m 30.574359,54.99716 c 3.02451,0.0062 4.434551,0.337593 7.271391,1.708423 4.06212,1.96292 7.464975,6.081762 8.564335,10.366292 0.71295,2.77857 0.802646,4.867656 0.313676,7.300846 -1.32617,6.59928 -6.320331,11.712239 -12.776481,13.080339 -3.70054,0.78416 -7.435015,0.31143 -10.87375,-1.37666 -2.79979,-1.37443 -5.89323,-4.458737 -7.25176,-7.230567 -2.34113,-4.77665 -2.41043,-9.851541 -0.1974,-14.419791 2.88686,-5.95918 8.40937,-9.442282 14.949989,-9.428882 z" />
  </g>
</svg>
